HIERARCHY
ROOT Hips
{
	OFFSET 0.000000 0.000000 0.000000
	CHANNELS 6 Xposition Yposition Zposition Zrotation Yrotation Xrotation 
	JOINT LHipJoint
	{
		OFFSET 0.000000 0.000000 0.000000
		CHANNELS 3 Zrotation Yrotation Xrotation
		JOINT LeftUpLeg
		{
			OFFSET 1.363060 -1.794630 0.839290
			CHANNELS 3 Zrotation Yrotation Xrotation
			JOINT LeftLeg
			{
				OFFSET 2.448110 -6.726130 0.000000
				CHANNELS 3 Zrotation Yrotation Xrotation
				JOINT LeftFoot
				{
					OFFSET 2.562200 -7.039590 0.000000
					CHANNELS 3 Zrotation Yrotation Xrotation
					JOINT LeftToeBase
					{
						OFFSET 0.157640 -0.433110 2.322550
						CHANNELS 3 Zrotation Yrotation Xrotation
						End Site
						{
							OFFSET 0.000000 0.000000 0.000000
						}
					}
				}
			}
		}
	}
	JOINT RHipJoint
	{
		OFFSET 0.000000 0.000000 0.000000
		CHANNELS 3 Zrotation Yrotation Xrotation
		JOINT RightUpLeg
		{
			OFFSET -1.305520 -1.794630 0.839290
			CHANNELS 3 Zrotation Yrotation Xrotation
			JOINT RightLeg
			{
				OFFSET -2.542530 -6.985550 0.000000
				CHANNELS 3 Zrotation Yrotation Xrotation
				JOINT RightFoot
				{
					OFFSET -2.568260 -7.056230 0.000000
					CHANNELS 3 Zrotation Yrotation Xrotation
					JOINT RightToeBase
					{
						OFFSET -0.164730 -0.452590 2.363150
						CHANNELS 3 Zrotation Yrotation Xrotation
						End Site
						{
							OFFSET 0.000000 0.000000 0.000000
						}
					}
				}
			}
		}
	}
	JOINT LowerBack
	{
		OFFSET 0.000000 0.000000 0.000000
		CHANNELS 3 Zrotation Yrotation Xrotation
		JOINT Spine
		{
			OFFSET 0.028270 2.035590 -0.193380
			CHANNELS 3 Zrotation Yrotation Xrotation
			JOINT Spine1
			{
				OFFSET 0.056720 2.048850 -0.042750
				CHANNELS 3 Zrotation Yrotation Xrotation
				JOINT Neck
				{
					OFFSET 0.000000 0.000000 0.000000
					CHANNELS 3 Zrotation Yrotation Xrotation
					JOINT Neck1
					{
						OFFSET -0.054170 1.746240 0.172020
						CHANNELS 3 Zrotation Yrotation Xrotation
						JOINT Head
						{
							OFFSET 0.104070 1.761360 -0.123970
							CHANNELS 3 Zrotation Yrotation Xrotation
							End Site
							{
								OFFSET 0.000000 0.000000 0.000000
							}
						}
					}
				}
				JOINT LeftShoulder
				{
					OFFSET 0.000000 0.000000 0.000000
					CHANNELS 3 Zrotation Yrotation Xrotation
					JOINT LeftArm
					{
						OFFSET 3.362410 1.200890 -0.311210
						CHANNELS 3 Zrotation Yrotation Xrotation
						JOINT LeftForeArm
						{
							OFFSET 4.983000 -0.000000 -0.000000
							CHANNELS 3 Zrotation Yrotation Xrotation
							JOINT LeftHand
							{
								OFFSET 3.483560 -0.000000 -0.000000
								CHANNELS 3 Zrotation Yrotation Xrotation
								JOINT LeftFingerBase
								{
									OFFSET 0.000000 0.000000 0.000000
									CHANNELS 3 Zrotation Yrotation Xrotation
									JOINT LeftHandIndex1
									{
										OFFSET 0.715260 -0.000000 -0.000000
										CHANNELS 3 Zrotation Yrotation Xrotation
										End Site
										{
											OFFSET 0.000000 0.000000 0.000000
										}
									}
								}
								JOINT LThumb
								{
									OFFSET 0.000000 0.000000 0.000000
									CHANNELS 3 Zrotation Yrotation Xrotation
									End Site
									{
										OFFSET 0.000000 0.000000 0.000000
									}
								}
							}
						}
					}
				}
				JOINT RightShoulder
				{
					OFFSET 0.000000 0.000000 0.000000
					CHANNELS 3 Zrotation Yrotation Xrotation
					JOINT RightArm
					{
						OFFSET -3.136600 1.374050 -0.404650
						CHANNELS 3 Zrotation Yrotation Xrotation
						JOINT RightForeArm
						{
							OFFSET -5.241900 -0.000000 -0.000000
							CHANNELS 3 Zrotation Yrotation Xrotation
							JOINT RightHand
							{
								OFFSET -3.444170 -0.000000 -0.000000
								CHANNELS 3 Zrotation Yrotation Xrotation
								JOINT RightFingerBase
								{
									OFFSET 0.000000 0.000000 0.000000
									CHANNELS 3 Zrotation Yrotation Xrotation
									JOINT RightHandIndex1
									{
										OFFSET -0.622530 -0.000000 -0.000000
										CHANNELS 3 Zrotation Yrotation Xrotation
										End Site
										{
											OFFSET 0.000000 0.000000 0.000000
										}
									}
								}
								JOINT RThumb
								{
									OFFSET 0.000000 0.000000 0.000000
									CHANNELS 3 Zrotation Yrotation Xrotation
									End Site
									{
										OFFSET 0.000000 0.000000 0.000000
									}
								}
							}
						}
					}
				}
			}
		}
	}
}
MOTION
Frames: 8
Frame Time: 0.008333
44.957442 17.955900 -4.040766 -178.068481 31.352087 -171.997304 -4.537877 -8.441201 -6.750633 -7.410012 3.701502 -34.443201 2.177581 13.666584 32.257421 -2.717590 15.192450 26.703088 0.575600 4.858600 13.505600 2.427699 5.012983 -1.948878 2.353841 -16.339429 -24.106504 -7.043082 -14.992739 47.872441 0.909579 -6.153632 5.728259 -0.319100 3.631000 -10.040700 -4.488187 3.015181 50.522482 -0.927275 3.824875 -1.607917 -4.432640 4.273119 -2.460660 -4.286861 5.482402 -22.593100 -0.306768 8.154826 2.551717 -1.091400 2.875200 9.879700 -9.605162 -8.422032 -0.478404 -37.357698 -25.177593 40.964284 34.810451 -39.317163 -19.573976 -2.225287 -0.656148 -30.544058 25.689679 -15.207366 -8.091200 -7.125000 0.000000 0.000000 0.185800 12.496700 -0.141200 12.134037 9.551369 1.431778 41.583516 27.368282 36.016359 -43.096188 41.230067 -25.051448 1.851109 4.467403 -13.918271 -11.765368 -22.737812 6.620500 7.125000 0.000000 0.000000 16.743700 -56.377600 -4.764800 
45.071186 17.973720 -4.009755 -178.059760 31.093809 -171.715692 -4.524503 -8.446835 -6.770928 -7.098863 3.732018 -34.440001 2.113799 13.557261 31.923106 -2.600246 15.146966 27.184860 0.464200 4.370000 12.120100 2.503651 5.072674 -2.054269 1.732115 -14.653542 -23.882152 -6.336458 -14.520608 45.674265 0.586728 -5.556062 6.292695 -0.528000 4.656400 -12.931000 -4.328542 2.833355 50.351767 -0.890997 3.699087 -1.607580 -4.201645 4.152945 -2.374714 -4.579703 5.442240 -22.770273 -0.267725 8.242927 2.565203 -0.989800 2.900700 9.923600 -9.547325 -8.496612 -0.505965 -36.854311 -25.784377 40.081045 35.202687 -39.382313 -19.930396 -2.245433 -0.633314 -30.688667 25.964354 -15.395293 -8.297000 -7.125000 0.000000 0.000000 0.349200 12.208900 -0.267500 12.142513 9.599081 1.419351 41.218359 26.991410 35.573717 -42.968502 41.195631 -25.061052 1.703258 4.467755 -13.352270 -10.714514 -22.270882 5.967400 7.125000 0.000000 0.000000 17.776500 -55.772100 -4.807700 
45.187939 17.983787 -3.967868 -178.246059 30.873885 -171.530936 -4.494966 -8.467313 -6.794480 -7.006071 3.846659 -34.607985 2.087902 13.493517 31.720060 -2.563291 15.219500 27.524681 0.333200 3.709900 10.261900 2.536469 5.168315 -2.205656 1.056878 -13.072336 -23.939169 -5.693137 -14.057930 43.744291 -0.248920 -3.869970 7.885854 -0.757400 5.558100 -15.507600 -4.446789 2.730622 50.089463 -0.856008 3.555365 -1.611658 -3.838169 4.015942 -2.241172 -4.939443 5.418889 -23.052330 -0.166707 8.393268 2.632543 -0.823200 2.950800 10.040200 -9.498654 -8.542554 -0.544908 -36.569762 -26.281454 39.294914 35.444393 -39.398098 -20.174339 -2.302518 -0.575418 -30.831362 26.472527 -15.731164 -8.692300 -7.125000 0.000000 0.000000 0.654200 11.662900 -0.508400 12.129362 9.642729 1.396072 40.984587 26.682623 35.499867 -42.976619 41.247543 -25.153693 1.654721 4.511170 -13.445105 -10.522655 -22.331159 5.889000 7.125000 0.000000 0.000000 18.066700 -55.836200 -4.918400 
45.303304 17.983902 -3.915797 -178.493771 30.640643 -171.352438 -4.469194 -8.515758 -6.838587 -6.930335 3.891767 -34.818728 2.077289 13.442974 31.529701 -2.602111 15.421994 27.756444 0.285600 3.436900 9.497400 2.542733 5.322118 -2.414773 0.480887 -11.519947 -24.260031 -5.098794 -13.647933 42.093061 -1.294244 -1.692102 9.678871 -1.050800 6.518400 -18.296300 -4.586312 2.610343 49.780302 -0.808593 3.372463 -1.607502 -3.662078 3.873413 -2.331966 -4.321072 5.819779 -22.464085 -0.628851 8.657827 2.387475 -1.392500 3.072800 9.723400 -9.377944 -8.590540 -0.465502 -36.157830 -26.295184 38.490116 35.863415 -39.595653 -20.660556 -2.369989 -0.606566 -31.306367 26.955136 -15.906541 -8.988000 -7.125000 0.000000 0.000000 0.996800 11.360600 -0.781000 12.231787 9.530434 1.398012 41.006788 26.321733 35.862293 -43.114216 41.434202 -25.311254 1.678760 4.556123 -13.983722 -11.034478 -22.660741 6.228800 7.125000 0.000000 0.000000 17.670100 -56.266700 -4.991900 
45.421908 17.981241 -3.857479 -178.748104 30.390584 -171.264753 -4.459843 -8.547303 -6.843035 -6.790751 3.888421 -34.879945 2.040613 13.358082 31.268811 -2.609637 15.563367 28.003075 0.289800 3.461600 9.566800 2.543834 5.471825 -2.592215 -0.033698 -10.153802 -24.546632 -4.580036 -13.321059 40.849924 -2.628501 1.289101 11.157909 -1.312900 7.257800 -20.481500 -4.731201 2.476271 49.510343 -0.788565 3.164523 -1.619579 -3.361091 3.724508 -2.209089 -4.640776 5.905757 -22.725046 -0.512630 8.922193 2.490089 -1.182000 3.179900 9.855600 -9.383520 -8.584361 -0.483505 -35.715309 -26.237365 37.594136 36.320111 -39.782484 -21.199520 -2.407362 -0.628831 -31.839314 27.241830 -16.255020 -9.295900 -7.125000 0.000000 0.000000 1.168200 10.903600 -0.926400 12.212893 9.534029 1.361122 40.913532 26.025497 36.215544 -43.188339 41.537210 -25.377918 1.742479 4.564155 -14.228236 -11.703694 -22.806196 6.605500 7.125000 0.000000 0.000000 16.970500 -56.525500 -4.893400 
45.544100 17.996168 -3.793259 -179.212159 30.120210 -171.482292 -4.549893 -8.553903 -6.781994 -6.688001 3.731289 -34.652548 1.967529 13.255470 30.919833 -2.648716 15.788267 28.234415 0.240000 3.153000 8.705100 2.578703 5.571650 -2.730944 -0.713040 -8.488238 -24.379792 -4.212569 -13.139055 40.050297 -3.654290 3.709328 11.864684 -1.388800 7.456200 -21.074200 -4.951248 2.370616 49.492301 -0.790881 2.952329 -1.622088 -3.211292 3.620152 -2.161952 -4.773378 5.946736 -22.807888 -0.454387 9.032409 2.481682 -1.086800 3.231700 9.856600 -9.407425 -8.578482 -0.487713 -35.325963 -26.198833 36.896965 36.581167 -39.883560 -21.557515 -2.472869 -0.603489 -32.410921 27.701817 -16.893009 -9.859200 -7.125000 0.000000 0.000000 1.406400 10.026600 -1.140400 12.202058 9.533180 1.346279 40.883157 25.726202 36.502533 -43.223650 41.627230 -25.423723 1.827524 4.565211 -14.502714 -12.528927 -22.955674 7.067200 7.125000 0.000000 0.000000 16.074500 -56.808900 -4.736500 
45.674738 18.024170 -3.720476 -179.410283 29.737449 -171.688441 -4.675611 -8.541335 -6.716757 -6.284824 3.467205 -34.198540 1.896347 13.116142 30.436237 -2.712558 16.137020 28.568245 0.204200 2.909400 8.026700 2.702849 5.680732 -2.842434 -1.038534 -6.517275 -23.967426 -4.018945 -13.185795 39.741947 -3.842404 4.157603 11.753100 -1.400500 7.486300 -21.164300 -4.917179 2.235833 49.596364 -0.783145 2.829601 -1.618186 -3.186726 3.561992 -2.178144 -4.759151 6.020157 -22.727504 -0.487042 9.113321 2.407206 -1.101700 3.275800 9.770400 -9.416703 -8.557198 -0.463511 -35.144274 -25.969852 36.447990 36.978517 -40.100904 -22.028507 -2.563116 -0.628168 -33.142376 28.335362 -17.323968 -10.396400 -7.125000 0.000000 0.000000 1.808100 9.365100 -1.490600 12.217145 9.483807 1.335042 40.937933 25.436216 36.638116 -43.176014 41.676472 -25.416408 1.891476 4.559915 -14.666729 -13.135185 -23.037435 7.400400 7.125000 0.000000 0.000000 15.394900 -56.986600 -4.596100 
45.819725 18.042684 -3.637627 -179.264146 29.177027 -171.735113 -4.753011 -8.523163 -6.688881 -5.667937 3.344552 -33.768108 1.838006 12.934643 29.872787 -2.698147 16.431395 29.169370 0.187700 2.790200 7.695200 2.829910 5.809979 -2.929268 -0.795897 -5.120888 -23.804746 -3.948751 -13.381908 39.913814 -3.809751 4.153538 11.605578 -1.369200 7.405500 -20.922300 -4.559802 2.039402 49.689759 -0.755926 2.791752 -1.611824 -3.246471 3.532869 -2.208919 -4.659225 6.108054 -22.603885 -0.580193 9.181363 2.324430 -1.188900 3.311800 9.676200 -9.404742 -8.525365 -0.421437 -35.173245 -25.589644 36.159372 37.561556 -40.438138 -22.650266 -2.616525 -0.719171 -33.607590 28.813910 -17.240140 -10.554500 -7.125000 0.000000 0.000000 2.191100 9.400500 -1.805100 12.265631 9.401812 1.318546 40.955942 25.153896 36.591210 -42.937594 41.621326 -25.250711 1.890707 4.534177 -14.394243 -13.084175 -22.844813 7.314300 7.125000 0.000000 0.000000 15.359600 -56.778200 -4.507200 
